#!OML:ASF F:\VICON\USERDATA\INSTALL\rory3\rory3.ASF
:FULLY-SPECIFIED
:DEGREES
331
root -0.18371 14.6669 -21.4497 -381.068 -69.163 375.694
lowerback 19.3959 -0.557405 -9.13468
upperback 1.04315 -2.83624 -0.0976859
thorax -9.32306 -0.999469 5.86172
lowerneck -16.324 -3.81496 -0.89829
upperneck 20.8529 -5.63375 1.67672
head 9.34053 -2.57193 -0.00426959
rclavicle 1.49089e-016 -1.98785e-016
rhumerus 27.5926 -11.7539 -42.4425
rradius 33.4823
rwrist 4.52685
rhand 21.4366 5.86899
rfingers 7.12502
rthumb 45.871 -17.2791
lclavicle 1.49089e-016 -1.98785e-016
lhumerus -16.2979 -71.3542 106.826
lradius 66.5755
lwrist 75.4886
lhand -3.0294 30.0313
lfingers 7.12502
lthumb 22.6858 58.7179
rfemur -22.1214 -6.98068 26.9353
rtibia 61.6134
rfoot -33.7134 -14.6535
rtoes 1.11121
lfemur -41.4533 5.0637 -13.0854
ltibia 59.138
lfoot -6.7471 4.15704
ltoes 0.81363
332
root -0.170231 14.6496 -21.4274 -379.826 -68.0813 374.875
lowerback 19.216 -0.848921 -8.18177
upperback 0.826496 -3.02129 -0.332459
thorax -9.49462 -1.11556 5.10497
lowerneck -14.7752 -3.18155 -0.457685
upperneck 19.282 -4.71653 1.32817
head 8.48482 -2.17352 -0.03263
rclavicle 1.21383e-014 -4.57205e-015
rhumerus 27.1035 -12.7901 -42.648
rradius 33.2227
rwrist 5.62651
rhand 21.1626 6.05029
rfingers 7.12502
rthumb 45.6166 -17.2022
lclavicle 1.21383e-014 -4.57205e-015
lhumerus -17.2339 -72.4745 107.77
lradius 66.7253
lwrist 75.9545
lhand -3.18198 29.2746
lfingers 7.12502
lthumb 22.5393 57.9789
rfemur -22.8966 -8.05427 26.7242
rtibia 61.9641
rfoot -33.6228 -13.8615
rtoes 2.05862
lfemur -42.1741 4.92181 -12.9776
ltibia 60.8583
lfoot -7.36159 4.87291
ltoes -8.14866
333
root -0.193732 14.6531 -21.4739 -380.251 -68.217 374.964
lowerback 19.5444 -0.461809 -8.8293
upperback 0.907837 -2.6751 -0.219906
thorax -9.60308 -0.917336 5.52155
lowerneck -14.9437 -3.39071 -0.479619
upperneck 19.4691 -5.02301 1.39424
head 8.58416 -2.30961 -0.048147
rclavicle -4.34096e-014 -2.72335e-014
rhumerus 27.0442 -14.1052 -42.9065
rradius 32.6152
rwrist 7.85475
rhand 22.4518 9.1441
rfingers 7.12502
rthumb 46.8119 -13.6046
lclavicle -4.34096e-014 -2.72335e-014
lhumerus -17.5664 -73.2031 107.619
lradius 67.1267
lwrist 76.1807
lhand -2.78536 29.1605
lfingers 7.12502
lthumb 22.9199 57.8182
rfemur -22.2678 -7.6346 26.9463
rtibia 61.7861
rfoot -34.3429 -13.758
rtoes 4.08024
lfemur -41.0027 6.14624 -12.1337
ltibia 61.9934
lfoot -8.68001 4.87874
ltoes -2.08185
334
root -0.197068 14.6576 -21.4799 -380.437 -67.6706 375.308
lowerback 19.5415 -0.578025 -8.90114
upperback 0.861296 -2.86074 -0.358945
thorax -9.62926 -1.00269 5.45744
lowerneck -14.5871 -3.09466 -0.299597
upperneck 19.0163 -4.63318 1.38184
head 8.35808 -2.12026 -0.024738
rclavicle -2.7308e-014 -2.54444e-014
rhumerus 26.7036 -13.7142 -42.6301
rradius 32.9618
rwrist 6.83076
rhand 21.6859 7.82881
rfingers 7.12502
rthumb 46.1023 -15.223
lclavicle -2.7308e-014 -2.54444e-014
lhumerus -17.3024 -73.1423 107.292
lradius 66.9147
lwrist 75.6213
lhand -2.90981 28.9713
lfingers 7.12502
lthumb 22.8005 57.6438
rfemur -22.4315 -7.93838 26.5806
rtibia 61.8977
rfoot -34.6498 -13.588
rtoes 5.41806
lfemur -40.5277 6.52354 -11.9108
ltibia 62.8941
lfoot -10.1273 4.91606
ltoes 2.23664
335
root -0.188537 14.6489 -21.4642 -379.385 -66.7419 374.555
lowerback 19.5242 -0.896809 -8.21175
upperback 0.678913 -3.14651 -0.514481
thorax -9.82357 -1.15544 4.97242
lowerneck -14.9922 -3.63405 -0.68331
upperneck 19.6018 -5.41853 1.84145
head 8.66214 -2.46291 0.0853181
rclavicle -6.58474e-016 1.70955e-014
rhumerus 26.3257 -13.9181 -42.5986
rradius 33.0548
rwrist 6.33641
rhand 21.9185 7.07461
rfingers 7.12502
rthumb 46.3179 -15.8864
lclavicle -6.58474e-016 1.70955e-014
lhumerus -17.3627 -73.36 106.96
lradius 67.239
lwrist 76.1972
lhand -3.13975 29.0934
lfingers 7.12502
lthumb 22.5798 57.7929
rfemur -22.949 -8.75347 26.5031
rtibia 62.1167
rfoot -34.5603 -13.9403
rtoes 3.72752
lfemur -40.7362 6.47912 -11.4768
ltibia 63.9876
lfoot -11.0205 5.57936
ltoes 3.44527
336
root -0.195082 14.6551 -21.4789 -379.467 -66.5213 374.79
lowerback 19.546 -0.706377 -8.27885
upperback 0.600192 -2.93375 -0.672096
thorax -9.96053 -1.04619 4.78351
lowerneck -14.2062 -3.18221 -0.0679223
upperneck 18.9126 -4.84761 1.5705
head 8.25623 -2.19191 -0.0167396
rclavicle -1.24551e-014 -1.10325e-014
rhumerus 25.4549 -14.0241 -41.9146
rradius 33.301
rwrist 5.94238
rhand 21.8783 7.19001
rfingers 7.12502
rthumb 46.2807 -15.7867
lclavicle -1.24551e-014 -1.10325e-014
lhumerus -17.2787 -73.1312 107.446
lradius 66.1886
lwrist 75.8563
lhand -1.49448 28.8303
lfingers 7.12502
lthumb 24.1582 57.329
rfemur -23.0355 -8.62257 26.4082
rtibia 62.0583
rfoot -35.0244 -13.44
rtoes 6.1325
lfemur -40.1305 7.27981 -10.9085
ltibia 64.5747
lfoot -11.4869 5.64427
ltoes 2.88818
337
root -0.199473 14.6675 -21.4845 -379.572 -65.8959 375.004
lowerback 19.624 -0.855349 -8.51593
upperback 0.544915 -3.16954 -0.465726
thorax -10.0085 -1.13515 5.21334
lowerneck -15.302 -3.71688 -1.08622
upperneck 19.8924 -5.44455 1.84773
head 8.82964 -2.49703 0.140898
rclavicle 2.19409e-014 2.127e-014
rhumerus 25.8979 -14.2124 -41.773
rradius 33.0349
rwrist 6.51032
rhand 21.9672 7.78352
rfingers 7.12502
rthumb 46.3631 -15.1583
lclavicle 2.19409e-014 2.127e-014
lhumerus -16.4979 -71.7941 107.666
lradius 65.3415
lwrist 75.0697
lhand -0.821773 29.2765
lfingers 7.12502
lthumb 24.803 57.688
rfemur -23.0333 -9.05981 26.0648
rtibia 61.9668
rfoot -35.2165 -12.3528
rtoes 10.3387
lfemur -39.2608 7.23945 -10.4447
ltibia 64.7428
lfoot -12.525 5.97678
ltoes 9.00651
338
root -0.208333 14.6791 -21.4859 -379.381 -65.4362 375.028
lowerback 19.5236 -1.02961 -8.58445
upperback 0.449125 -3.41608 -0.540583
thorax -10.025 -1.24603 5.23106
lowerneck -14.0419 -2.93479 -0.77257
upperneck 18.897 -4.37267 1.71248
head 8.23636 -2.00445 0.202634
rclavicle -4.81059e-014 6.36111e-015
rhumerus 26.085 -14.4963 -42.2356
rradius 32.8386
rwrist 7.18251
rhand 22.3842 8.14804
rfingers 7.12502
rthumb 46.7493 -14.6278
lclavicle -4.81059e-014 6.36111e-015
lhumerus -16.3225 -71.3173 107.396
lradius 65.0867
lwrist 75.1402
lhand -0.64034 29.4151
lfingers 7.12502
lthumb 24.9769 57.8025
rfemur -23.1264 -9.41054 25.874
rtibia 61.8556
rfoot -35.1809 -11.738
rtoes 12.08
lfemur -38.5183 7.88776 -10.0899
ltibia 64.8834
lfoot -12.9588 7.68099
ltoes -3.10413
339
root -0.216187 14.6835 -21.4884 -379.463 -65.096 375.199
lowerback 19.5518 -0.933348 -8.4473
upperback 0.43941 -3.2889 -0.776758
thorax -10.0931 -1.19584 4.86059
lowerneck -15.6275 -3.58158 -0.443931
upperneck 20.2196 -5.41768 1.7808
head 8.9808 -2.43679 0.0061935
rclavicle 8.70056e-014 2.20651e-014
rhumerus 25.5395 -15.1608 -42.1294
rradius 32.7959
rwrist 7.35461
rhand 22.617 8.54924
rfingers 7.12502
rthumb 46.9647 -14.1325
lclavicle 8.70056e-014 2.20651e-014
lhumerus -16.3712 -71.928 107.221
lradius 65.12
lwrist 75.1791
lhand -0.3502 29.3209
lfingers 7.12502
lthumb 25.2549 57.6694
rfemur -23.1411 -9.50161 25.713
rtibia 61.7679
rfoot -35.2386 -11.7733
rtoes 12.5388
lfemur -37.5853 8.24542 -9.32365
ltibia 64.7945
lfoot -13.9621 7.7094
ltoes -0.985708
340
root -0.2244 14.6971 -21.4988 -379.284 -64.7342 375.167
lowerback 19.4831 -0.849254 -8.46397
upperback 0.43409 -3.18009 -0.826374
thorax -10.0783 -1.14562 4.78331
lowerneck -14.0643 -2.94189 0.197817
upperneck 18.8412 -4.5064 1.27112
head 8.18964 -2.0428 -0.117795
rclavicle -2.8302e-014 1.61016e-014
rhumerus 25.0664 -15.4985 -41.6753
rradius 32.9503
rwrist 7.18489
rhand 22.3815 8.4756
rfingers 7.12502
rthumb 46.7468 -14.3013
lclavicle -2.8302e-014 1.61016e-014
lhumerus -16.1204 -72.2758 107.12
lradius 65.1004
lwrist 75.2442
lhand -0.189344 29.3591
lfingers 7.12502
lthumb 25.409 57.6858
rfemur -23.2002 -9.64774 25.6658
rtibia 61.6677
rfoot -35.3774 -11.9516
rtoes 12.7137
lfemur -36.6333 8.64029 -8.53094
ltibia 64.5531
lfoot -14.0892 8.23145
ltoes 2.55461
341
root -0.227266 14.7091 -21.5158 -378.997 -64.2705 375.155
lowerback 19.4977 -1.04371 -8.9101
upperback 0.285673 -3.52675 -0.670132
thorax -10.1694 -1.27167 5.30376
lowerneck -14.2767 -2.88099 0.106519
upperneck 18.9483 -4.3923 1.2109
head 8.2636 -1.99803 -0.114666
rclavicle -1.51822e-014 -1.0138e-014
rhumerus 25.6633 -15.4823 -42.1555
rradius 32.7767
rwrist 7.64535
rhand 22.734 9.0757
rfingers 7.12502
rthumb 47.0729 -13.5583
lclavicle -1.51822e-014 -1.0138e-014
lhumerus -15.571 -71.7948 106.397
lradius 65.0786
lwrist 74.9128
lhand -0.0184265 29.2908
lfingers 7.12502
lthumb 25.5727 57.5941
rfemur -23.4554 -9.95077 25.6268
rtibia 61.5631
rfoot -35.0964 -12.4922
rtoes 11.1072
lfemur -35.8164 8.67749 -7.78117
ltibia 64.0367
lfoot -13.7897 8.79888
ltoes 4.76773
342
root -0.236128 14.7147 -21.5161 -378.469 -63.9268 374.935
lowerback 19.2456 -1.01606 -8.77536
upperback 0.175352 -3.44674 -0.758226
thorax -10.1776 -1.23856 5.09882
lowerneck -14.3609 -2.98161 0.12148
upperneck 19.1183 -4.58858 1.41965
head 8.34253 -2.06675 -0.0732832
rclavicle -7.85199e-015 -2.0276e-014
rhumerus 25.1918 -16.0428 -42.0286
rradius 32.7477
rwrist 7.76791
rhand 22.756 9.02274
rfingers 7.12502
rthumb 47.0934 -13.6022
lclavicle -7.85199e-015 -2.0276e-014
lhumerus -15.8629 -72.2855 106.598
lradius 65.0963
lwrist 74.5828
lhand 0.0321611 29.0709
lfingers 7.12502
lthumb 25.6212 57.3672
rfemur -23.7759 -10.0998 25.6511
rtibia 61.5397
rfoot -35.134 -12.3986
rtoes 11.9832
lfemur -35.0704 9.16517 -6.91629
ltibia 63.5886
lfoot -14.6262 8.95995
ltoes 6.87416
343
root -0.242819 14.7242 -21.519 -378.099 -63.4827 374.667
lowerback 19.184 -1.11601 -8.73665
upperback 0.141736 -3.55335 -0.667172
thorax -10.1607 -1.28731 5.20283
lowerneck -14.1682 -2.86679 -0.102431
upperneck 18.9611 -4.35661 1.36137
head 8.25663 -1.98161 -0.0246834
rclavicle 1.12438e-014 -1.72943e-014
rhumerus 25.1433 -15.8082 -41.6259
rradius 32.7971
rwrist 7.4828
rhand 22.3599 8.9239
rfingers 7.12502
rthumb 46.7268 -13.8617
lclavicle 1.12438e-014 -1.72943e-014
lhumerus -14.967 -71.9697 105.51
lradius 65.4127
lwrist 75.192
lhand 0.721904 29.3977
lfingers 7.12502
lthumb 26.2816 57.5972
rfemur -23.8014 -10.4373 25.608
rtibia 61.4368
rfoot -35.1735 -12.2652
rtoes 12.1473
lfemur -34.0739 9.35646 -5.97754
ltibia 62.9283
lfoot -15.2603 8.61453
ltoes 12.6766
344
root -0.258955 14.763 -21.5325 -378.526 -62.9512 375.271
lowerback 19.1524 -0.968929 -9.01329
upperback 0.125161 -3.43912 -0.841297
thorax -10.176 -1.22382 5.13565
lowerneck -14.2736 -2.95467 0.0297272
upperneck 18.9924 -4.50489 1.34534
head 8.28388 -2.04195 -0.0704202
rclavicle 1.51201e-014 5.56597e-015
rhumerus 24.7717 -16.6873 -41.6483
rradius 32.7537
rwrist 7.96449
rhand 22.3533 8.60163
rfingers 7.12502
rthumb 46.7207 -14.1867
lclavicle 1.51201e-014 5.56597e-015
lhumerus -14.9383 -72.331 105.83
lradius 65.2314
lwrist 75.1317
lhand 0.929366 29.4786
lfingers 7.12502
lthumb 26.4802 57.6484
rfemur -23.612 -10.81 25.1627
rtibia 61.0789
rfoot -35.2555 -12.3224
rtoes 11.8908
lfemur -32.5457 9.5818 -5.51032
ltibia 61.5493
lfoot -15.8564 8.9427
ltoes 14.88
345
root -0.26588 14.7891 -21.5381 -379.106 -62.143 376.342
lowerback 18.8922 -1.03083 -9.85343
upperback 0.0192247 -3.67745 -0.795224
thorax -10.0623 -1.29578 5.71007
lowerneck -13.9492 -2.92642 -0.361625
upperneck 18.6679 -4.36966 1.38569
head 8.12541 -2.00635 0.031146
rclavicle -3.07992e-014 -2.96189e-014
rhumerus 24.5717 -16.0323 -40.6573
rradius 33.1291
rwrist 7.12164
rhand 22.5079 8.35788
rfingers 7.12502
rthumb 46.8638 -14.3681
lclavicle -3.07992e-014 -2.96189e-014
lhumerus -14.4057 -72.1178 105.856
lradius 65.107
lwrist 75.1149
lhand 0.735861 29.6576
lfingers 7.12502
lthumb 26.295 57.8552
rfemur -23.9491 -11.4397 24.3439
rtibia 61.0713
rfoot -35.1365 -12.2953
rtoes 11.4825
lfemur -31.496 9.08787 -5.61551
ltibia 60.082
lfoot -15.4546 9.98028
ltoes 13.9397
